<svg width="48" height="48" viewBox="0 0 32 32" xmlns="http://www.w3.org/2000/svg"><path fill="#00DC82" d="M17.708 25h10.409a1.89 1.89 0 001.631-.95 1.913 1.913 0 000-1.9L22.756 9.936a1.87 1.87 0 00-3.261 0l-1.788 3.125-3.494-6.111a1.871 1.871 0 00-3.262 0l-8.7 15.2a1.912 1.912 0 00.69 2.595c.286.167.61.255.941.255h6.534c2.589 0 4.498-1.147 5.811-3.385l3.19-5.572 1.708-2.982 5.127 8.957h-6.835L17.707 25zm-7.398-2.985l-4.56-.001 6.836-11.942 3.41 5.97-2.283 3.992c-.873 1.452-1.864 1.981-3.403 1.981z"/></svg>