<svg width="91" height="28" viewBox="0 0 91 28" fill="none" xmlns="http://www.w3.org/2000/svg"><path d="M91 0H0v28h91V0z" fill="#FC3F1D"/><path d="M35.438 13.825V10.86h-1.464c-.478 0-.855.132-1.13.395-.27.264-.406.627-.406 1.088 0 .466.136.83.406 1.094.271.26.65.39 1.136.39h1.458zm-1.207 1.517l-2.05 3.414h-1.995l2.264-3.698a2.715 2.715 0 01-1.356-1.015c-.335-.484-.502-1.053-.502-1.707 0-.928.283-1.675.848-2.242.566-.567 1.327-.85 2.283-.85h3.501v9.512h-1.786v-3.415H34.23zM46.933 18.756H45.13v-3.975h-3.884v3.975h-1.804V9.244h1.804v3.836h3.884V9.244h1.804v9.512zM51.496 14.722c-.032.55-.088 1-.167 1.351-.08.352-.123.433-.192.864v.118h3.2v-6.117h-2.72l-.121 3.784zm-1.581 4.034h-1.637v-1.7h.945c.287-.225.333-.361.453-.739s.199-.91.239-1.595l.113-5.478h6.113v7.811h1.075v1.701h-7.301zM64.452 17.055v1.701H58.74V9.244h5.712v1.7h-3.908v2.222h3.687v1.576h-3.687v2.313h3.908zM68.276 13.285h.275l3.017-4.041h2.008l-3.502 4.654 3.74 4.858h-2.18l-3.071-3.896h-.287v3.896H66.47V9.244h1.805v4.04zM78.44 19c-1.251 0-2.24-.446-2.964-1.338-.721-.897-1.082-2.118-1.082-3.665 0-1.547.36-2.767 1.082-3.659C76.2 9.446 77.189 9 78.439 9c1.02 0 1.88.336 2.581 1.009.706.668 1.092 1.52 1.16 2.557h-1.757c-.088-.55-.313-.989-.675-1.318a1.863 1.863 0 00-1.309-.494c-.677 0-1.213.29-1.607.87-.394.58-.591 1.37-.591 2.373 0 1.002.197 1.795.591 2.38.394.58.932.87 1.613.87.518 0 .956-.157 1.315-.468.358-.313.581-.73.669-1.253h1.757c-.076 1.028-.46 1.866-1.154 2.512-.689.641-1.553.962-2.593.962zM22 22h-4.032v-5.867H15.76L11.803 22H7l4.697-6.63c-.95-.415-1.696-1.003-2.237-1.762-.535-.76-.803-1.755-.803-2.987 0-.817.176-1.53.528-2.139a4.749 4.749 0 011.362-1.493c.478-.337 1.059-.584 1.742-.742.69-.165 1.477-.247 2.364-.247H22v16zm-4.032-8.747V8.944h-2.006c-.612 0-1.084.022-1.415.065-.33.036-.65.172-.96.408-.24.18-.422.416-.549.71a2.34 2.34 0 00-.19.956c0 .365.067.694.2.988.134.287.32.523.56.71.267.214.58.347.94.397.365.05.844.075 1.435.075h1.985z" fill="#fff"/></svg>