<svg width="82" height="28" viewBox="0 0 82 28" fill="none" xmlns="http://www.w3.org/2000/svg"><path d="M82 0H0v28h82V0z" fill="#EA4335"/><path d="M39.11 18.251c-.374.168-.87.336-1.489.504a7.207 7.207 0 01-1.849.245c-1.424 0-2.538-.443-3.344-1.33-.805-.89-1.208-2.12-1.208-3.686 0-1.494.406-2.697 1.22-3.609C33.251 9.458 34.385 9 35.84 9c.55 0 1.075.058 1.573.174.499.112 1.053.338 1.664.678v2.253h-.242a20.65 20.65 0 00-.46-.38 5.302 5.302 0 00-.585-.427 3.55 3.55 0 00-.765-.355 2.82 2.82 0 00-.921-.148c-.383 0-.729.064-1.04.193-.311.13-.59.328-.837.594a2.802 2.802 0 00-.563.988 4.263 4.263 0 00-.202 1.375c0 1.063.246 1.877.736 2.44.491.564 1.216.846 2.175.846a6.15 6.15 0 00.546-.026V15.32h-1.67v-1.814h3.861v4.745zM49.823 18.8h-2.147v-6.437l-1.551 4.177h-1.49l-1.551-4.176V18.8h-2.035V9.187h2.507l1.883 4.823 1.877-4.823h2.507V18.8zM59.697 18.8h-2.23l-.58-1.943h-3.102l-.579 1.943h-2.175l3.091-9.613h2.484l3.091 9.613zm-3.332-3.706l-1.029-3.447-1.028 3.447h2.057zM65.424 18.8h-4.9v-1.704h1.371v-6.204h-1.371V9.187h4.9v1.705h-1.37v6.204h1.37V18.8zM73.22 18.8h-6.036V9.187h2.158v7.754h3.878V18.8zM23 22h-3.915V11.287l-2.83 6.952H13.54l-2.829-6.952V22H7V6h4.571l3.434 8.027L18.43 6H23v16z" fill="#fff"/></svg>